<svg width="254" height="254" viewBox="0 0 254 254" fill="none" xmlns="http://www.w3.org/2000/svg">
<rect width="254" height="254" rx="10" fill="#8DC641"/>
<path d="M137.328 103.14C137.422 103.912 138.321 104.286 138.934 103.81L169.155 80.3412C170.083 79.6203 171.278 80.8139 170.559 81.7432L146.401 112.946V112.946C146.401 112.947 146.401 112.947 146.402 112.947L224.272 123.231C225.431 123.384 225.431 125.061 224.272 125.214L146.402 135.498C146.401 135.498 146.401 135.499 146.401 135.499V135.499L170.558 166.702C171.278 167.631 170.083 168.825 169.154 168.104L138.934 144.635C138.321 144.158 137.422 144.533 137.328 145.304L128.063 221.566C127.921 222.738 126.22 222.738 126.078 221.566L116.812 145.304C116.719 144.533 115.82 144.158 115.206 144.635L84.9863 168.104C84.058 168.825 82.8627 167.631 83.5822 166.702L107.739 135.499V135.499C107.74 135.499 107.739 135.498 107.739 135.498L29.8683 125.214C28.7095 125.061 28.7095 123.384 29.8683 123.231L107.739 112.947C107.739 112.947 107.74 112.947 107.739 112.946V112.946L83.5819 81.7432C82.8624 80.8139 84.0577 79.6204 84.986 80.3412L115.206 103.81C115.82 104.286 116.719 103.912 116.812 103.14L126.078 26.8798C126.22 25.7072 127.921 25.7072 128.063 26.8798L137.328 103.14Z" fill="white"/>
<path d="M113.157 178.941C113.192 179.273 113.058 179.601 112.8 179.814L101.809 188.921C101.035 189.562 99.9043 188.789 100.222 187.835L109.33 160.513C109.67 159.492 111.162 159.656 111.273 160.727L113.157 178.941ZM153.92 187.835C154.238 188.789 153.107 189.562 152.333 188.921L141.342 179.814C141.084 179.601 140.951 179.273 140.985 178.941L142.869 160.727C142.98 159.656 144.472 159.492 144.812 160.513L153.92 187.835ZM92.4057 138.708C93.4812 138.811 93.6512 140.31 92.6262 140.652L69.9932 148.196C69.0579 148.507 68.2836 147.421 68.8834 146.638L75.824 137.586C76.0339 137.312 76.37 137.166 76.7133 137.199L92.4057 138.708ZM185.259 146.638C185.859 147.421 185.084 148.507 184.149 148.195L161.517 140.652C160.492 140.31 160.662 138.811 161.737 138.708L177.429 137.199C177.772 137.166 178.108 137.312 178.318 137.586L185.259 146.638ZM92.6261 107.794C93.6511 108.136 93.481 109.635 92.4055 109.738L76.7133 111.246C76.37 111.279 76.0339 111.133 75.8241 110.859L68.8835 101.807C68.2836 101.024 69.0581 99.9379 69.9933 100.25L92.6261 107.794ZM178.318 110.859C178.108 111.133 177.772 111.279 177.429 111.246L161.737 109.738C160.662 109.635 160.492 108.136 161.517 107.794L184.149 100.25C185.084 99.9379 185.858 101.024 185.259 101.807L178.318 110.859ZM112.801 68.6319C113.058 68.845 113.192 69.1725 113.157 69.5048L111.273 87.7183C111.162 88.7891 109.67 88.9529 109.33 87.9317L100.222 60.6106C99.9043 59.6567 101.035 58.8828 101.809 59.5243L112.801 68.6319ZM144.812 87.9317C144.472 88.9529 142.98 88.7891 142.869 87.7183L140.985 69.5048C140.951 69.1725 141.084 68.845 141.342 68.6319L152.333 59.5243C153.107 58.8828 154.238 59.6567 153.92 60.6106L144.812 87.9317Z" fill="#188038"/>
</svg>
